<?xml version="1.0" encoding="UTF-8"?>
<svg xmlns="http://www.w3.org/2000/svg" xmlns:xlink="http://www.w3.org/1999/xlink" width="800pt" height="800pt" viewBox="0 0 800 800" version="1.1">
<g id="surface1">
<path style=" stroke:none;fill-rule:nonzero;fill:rgb(100%,100%,100%);fill-opacity:1;" d="M 702.75 333 L 53.25 52.5 L 186 371.25 C 193.503906 389.683594 193.503906 410.316406 186 428.75 L 53.25 747 L 703.25 472 C 730.75 460.148438 748.5625 433.070312 748.5625 403.125 C 748.5625 373.179688 730.75 346.101562 703.25 334.25 Z M 682.75 425 L 146.75 653 L 232 448 C 235.164062 440.609375 237.511719 432.898438 239 425 L 500 425 L 500 375 L 239 375 C 237.511719 367.101562 235.164062 359.390625 232 352 L 146.75 147.5 L 683 378.75 C 692.140625 382.738281 698.035156 391.777344 698 401.75 C 698.09375 411.871094 692.070312 421.050781 682.75 425 Z M 682.75 425 "/>
</g>
</svg>
